<?xml version="1.0" encoding="iso-8859-1"?>
<!-- Uploaded to: SVG Repo, www.svgrepo.com, Generator: SVG Repo Mixer Tools -->
<svg height="800px" width="800px" version="1.1" id="Layer_1" xmlns="http://www.w3.org/2000/svg" xmlns:xlink="http://www.w3.org/1999/xlink" 
	 viewBox="0 0 512 512" xml:space="preserve">
<g>
	<path style="fill:#BBDCE3;" d="M256.079,427.967c0,0-20.673-13.434-40.909-28.885H63.42v97.45h385.16v-97.45H296.958
		C276.743,414.548,256.079,427.967,256.079,427.967z"/>
	<path style="fill:#BBDCE3;" d="M63.42,15.468v295.444h108.952c6.783-18.573,22.797-31.979,41.483-31.979
		c24.677,0,42.145,19.652,42.145,19.652s18.528-19.652,42.143-19.652c18.687,0,34.702,13.406,41.483,31.979H448.58V15.468H63.42z"/>
</g>
<path style="fill:#DE5E88;" d="M298.143,278.933c-23.615,0-42.143,19.652-42.143,19.652s-17.47-19.652-42.145-19.652
	c-24.001,0-43.599,22.112-44.881,48.887c-0.724,15.125,3.641,26.635,9.793,37.062c12.286,20.83,77.312,63.083,77.312,63.083
	s64.786-42.072,77.153-63.083c6.166-10.474,10.517-21.937,9.793-37.062C341.742,301.047,322.145,278.933,298.143,278.933"/>
<g>
	<path style="fill:#FECC85;" d="M178.767,364.884c-6.152-10.427-10.515-21.937-9.793-37.062c0.285-5.929,1.469-11.628,3.398-16.91
		H63.42v88.169h151.75C199.518,387.129,184.125,373.97,178.767,364.884z"/>
	<path style="fill:#FECC85;" d="M339.628,310.912c1.929,5.282,3.114,10.981,3.398,16.91c0.724,15.125-3.627,26.588-9.793,37.062
		c-5.383,9.145-20.697,22.279-36.275,34.197H448.58v-88.169H339.628z"/>
</g>
<path d="M448.58,0H63.42c-8.543,0-15.468,6.927-15.468,15.468v295.444v88.169v97.45c0,8.542,6.925,15.468,15.468,15.468h385.16
	c8.543,0,15.468-6.927,15.468-15.468v-97.45v-88.169V15.468C464.048,6.927,457.123,0,448.58,0z M78.888,326.381h74.672
	c-0.012,0.234-0.026,0.469-0.037,0.702c-0.063,1.319-0.093,2.614-0.094,3.887c0,0.093,0.006,0.179,0.006,0.272
	c0.012,3.712,0.274,7.23,0.736,10.543c0.056,0.405,0.131,0.79,0.193,1.19c0.286,1.833,0.616,3.618,1.009,5.327
	c0.063,0.278,0.139,0.543,0.206,0.818c2.421,10.002,6.456,17.85,9.863,23.625c1.544,2.616,3.912,6.067,8.359,10.868H78.888V326.381z
	 M256.08,409.37c-7.743-5.251-19.767-13.607-31.521-22.584c-0.003-0.002-0.006-0.003-0.009-0.006
	c-1.51-1.154-2.948-2.265-4.323-3.341c-0.08-0.063-0.161-0.127-0.241-0.189c-0.674-0.529-1.335-1.05-1.978-1.561
	c-0.017-0.014-0.036-0.028-0.053-0.042c-17.648-14.01-23.537-21.156-25.379-23.864c-0.17-0.257-0.342-0.515-0.486-0.759
	c-0.871-1.476-1.637-2.913-2.353-4.336c-2.893-5.753-4.565-11.159-5.14-16.843c-0.238-2.364-0.292-4.777-0.172-7.284
	c0.048-0.995,0.136-1.983,0.254-2.965c0.011-0.097,0.02-0.196,0.032-0.294c0.121-0.956,0.275-1.906,0.461-2.849
	c0.019-0.097,0.037-0.196,0.057-0.295c0.196-0.965,0.425-1.923,0.69-2.869c0.012-0.046,0.026-0.094,0.04-0.141
	c0.278-0.985,0.591-1.961,0.942-2.924c0-0.002,0.002-0.003,0.002-0.005c0.579-1.584,1.244-3.097,1.978-4.542
	c0.068-0.133,0.136-0.266,0.206-0.399c0.311-0.596,0.637-1.177,0.973-1.746c0.195-0.328,0.399-0.648,0.603-0.968
	c0.135-0.212,0.269-0.421,0.407-0.63c3.923-5.886,9.289-10.277,15.337-12.297c0.209-0.068,0.416-0.141,0.625-0.204
	c0.303-0.093,0.608-0.176,0.914-0.257c0.407-0.105,0.815-0.201,1.227-0.285c0.223-0.046,0.447-0.093,0.671-0.132
	c0.526-0.093,1.056-0.165,1.589-0.221c0.178-0.019,0.354-0.036,0.534-0.049c0.626-0.051,1.254-0.088,1.889-0.088
	c17.179,0,30.517,14.39,30.584,14.461c2.883,3.244,6.968,5.156,11.307,5.219c4.34,0.141,8.477-1.668,11.454-4.828
	c0.014-0.014,0.19-0.192,0.444-0.438c2.322-2.232,15.693-14.415,30.497-14.415c0.633,0,1.262,0.036,1.889,0.088
	c0.178,0.014,0.356,0.031,0.534,0.049c0.532,0.056,1.061,0.128,1.587,0.22c0.226,0.04,0.452,0.087,0.676,0.133
	c0.41,0.084,0.817,0.178,1.222,0.283c0.308,0.08,0.614,0.164,0.919,0.258c0.207,0.062,0.411,0.133,0.616,0.201
	c6.057,2.02,11.431,6.419,15.357,12.317c0.125,0.189,0.247,0.381,0.37,0.572c0.224,0.351,0.447,0.704,0.662,1.066
	c0.32,0.544,0.633,1.1,0.93,1.669c0.076,0.144,0.15,0.291,0.226,0.436c0.73,1.439,1.394,2.945,1.971,4.523
	c0,0.002,0.002,0.003,0.002,0.005c0.348,0.956,0.659,1.924,0.936,2.9c0.017,0.062,0.034,0.124,0.053,0.186
	c0.26,0.934,0.486,1.878,0.681,2.831c0.023,0.111,0.043,0.223,0.065,0.334c0.183,0.931,0.336,1.869,0.455,2.814
	c0.014,0.11,0.023,0.223,0.037,0.333c0.113,0.957,0.2,1.92,0.247,2.888c0.002,0.017,0.003,0.034,0.003,0.053
	c0.24,5.006-0.213,9.635-1.46,14.26c-0.165,0.614-0.384,1.231-0.577,1.847c-1.264,4.012-3.097,8.056-5.635,12.368
	c-0.165,0.283-0.36,0.58-0.56,0.879c-1.774,2.611-6.373,8.098-18.099,17.954c-4.563,3.824-9.652,7.853-14.975,11.907
	C274.95,396.379,263.531,404.314,256.08,409.37z M346.562,372.731c4.163-7.069,9.272-17.224,11.208-30.624
	c0.017-0.116,0.04-0.226,0.056-0.343c0.125-0.893,0.223-1.811,0.319-2.733c0.025-0.246,0.062-0.481,0.085-0.729
	c0.036-0.382,0.051-0.78,0.082-1.165c0.158-1.999,0.258-4.047,0.257-6.176c0-1.27-0.031-2.563-0.094-3.881
	c-0.011-0.232-0.023-0.467-0.036-0.699h74.673v57.233h-94.882C342.65,378.817,345.015,375.359,346.562,372.731z M78.888,30.937
	h354.224v264.508h-83.519c-4.048-7.304-9.312-13.666-15.476-18.754c-0.023-0.02-0.048-0.04-0.071-0.06
	c-1.963-1.615-4.014-3.103-6.149-4.449c-0.178-0.111-0.357-0.218-0.535-0.328c-0.857-0.527-1.725-1.032-2.606-1.513
	c-0.227-0.124-0.453-0.252-0.682-0.373c-2.094-1.109-4.254-2.087-6.47-2.925c-0.286-0.108-0.575-0.21-0.865-0.314
	c-0.854-0.308-1.715-0.592-2.586-0.858c-0.292-0.09-0.582-0.183-0.875-0.266c-1.135-0.326-2.28-0.626-3.439-0.88
	c-0.003,0-0.005,0-0.008-0.002c-1.137-0.248-2.288-0.449-3.445-0.625c-0.333-0.051-0.668-0.093-1.002-0.136
	c-0.872-0.116-1.749-0.21-2.631-0.285c-0.345-0.029-0.687-0.062-1.033-0.085c-1.185-0.077-2.374-0.128-3.575-0.128
	c-17.657,0-32.491,7.914-42.047,14.791c-8.879-6.464-22.418-13.807-38.904-14.7c-1.1-0.06-2.212-0.091-3.337-0.091
	c-1.2,0-2.391,0.051-3.575,0.128c-0.345,0.023-0.688,0.056-1.032,0.085c-0.883,0.074-1.76,0.169-2.633,0.285
	c-0.334,0.045-0.668,0.087-1.001,0.136c-1.16,0.176-2.313,0.377-3.451,0.626l0,0c-1.16,0.254-2.306,0.554-3.442,0.88
	c-0.292,0.084-0.58,0.176-0.871,0.264c-0.872,0.266-1.736,0.552-2.592,0.86c-0.288,0.104-0.575,0.204-0.86,0.312
	c-2.218,0.838-4.379,1.818-6.475,2.927c-0.226,0.121-0.449,0.246-0.674,0.368c-0.883,0.483-1.756,0.988-2.614,1.517
	c-0.176,0.108-0.354,0.213-0.529,0.323c-2.136,1.347-4.189,2.835-6.155,4.453c-0.022,0.019-0.043,0.036-0.065,0.054
	c-6.164,5.088-11.43,11.451-15.479,18.757H78.888V30.937z M433.112,481.063H78.888V414.55h130.995
	c16.546,12.435,32.363,22.876,37.769,26.389c1.217,0.79,2.521,1.38,3.866,1.794c0.071,0.022,0.139,0.057,0.21,0.077
	c0.119,0.036,0.243,0.046,0.362,0.079c1.307,0.35,2.647,0.546,3.989,0.546l0,0c1.709,0,3.411-0.319,5.047-0.883
	c1.169-0.405,2.311-0.919,3.378-1.612c0.065-0.042,0.255-0.165,0.537-0.351c5.827-3.794,21.162-13.959,37.214-26.039h130.857
	V481.063z"/>
<path d="M141.663,128.387h182.52c8.543,0,15.468-6.927,15.468-15.468s-6.925-15.468-15.468-15.468h-182.52
	c-8.543,0-15.468,6.927-15.468,15.468S133.12,128.387,141.663,128.387z"/>
<path d="M356.049,118.826c0.387,0.944,0.866,1.841,1.423,2.676c0.572,0.851,1.222,1.64,1.934,2.351
	c0.712,0.713,1.5,1.363,2.351,1.918c0.835,0.557,1.732,1.036,2.661,1.423c0.944,0.387,1.918,0.696,2.893,0.897
	c1.005,0.201,2.026,0.294,3.032,0.294c1.005,0,2.026-0.094,3.016-0.294c0.99-0.201,1.964-0.51,2.893-0.897
	c0.944-0.387,1.841-0.866,2.676-1.423c0.851-0.555,1.64-1.205,2.351-1.918c0.712-0.712,1.361-1.5,1.918-2.351
	c0.557-0.835,1.036-1.732,1.423-2.676c0.387-0.928,0.681-1.901,0.882-2.891c0.201-0.992,0.309-2.012,0.309-3.016
	c0-1.005-0.108-2.028-0.309-3.016c-0.201-0.988-0.495-1.964-0.882-2.893c-0.387-0.944-0.866-1.839-1.423-2.674
	c-0.557-0.852-1.207-1.641-1.918-2.353c-0.712-0.712-1.5-1.361-2.351-1.918c-0.835-0.555-1.732-1.036-2.676-1.423
	c-0.928-0.387-1.903-0.696-2.893-0.88c-1.995-0.404-4.053-0.404-6.048,0c-0.975,0.184-1.949,0.493-2.893,0.88
	c-0.928,0.387-1.825,0.868-2.661,1.423c-0.851,0.557-1.64,1.207-2.351,1.918c-0.727,0.712-1.361,1.5-1.934,2.353
	c-0.557,0.835-1.036,1.731-1.423,2.674c-0.387,0.93-0.681,1.903-0.882,2.893c-0.201,0.99-0.294,2.011-0.294,3.016
	c0,1.004,0.093,2.026,0.294,3.016S355.662,117.899,356.049,118.826z"/>
<path d="M370.337,185.619h-182.52c-8.543,0-15.468,6.927-15.468,15.468c0,8.542,6.925,15.468,15.468,15.468h182.519
	c8.543,0,15.468-6.927,15.468-15.468C385.805,192.546,378.88,185.619,370.337,185.619z"/>
<path d="M156.833,198.071c-0.201-0.99-0.495-1.964-0.882-2.893c-0.387-0.944-0.866-1.839-1.423-2.674
	c-0.572-0.852-1.222-1.641-1.934-2.353c-0.712-0.712-1.5-1.361-2.351-1.918c-0.835-0.572-1.732-1.036-2.661-1.423
	c-0.944-0.387-1.918-0.696-2.893-0.897c-1.995-0.387-4.053-0.387-6.048,0c-0.99,0.201-1.964,0.51-2.893,0.897
	c-0.944,0.387-1.841,0.851-2.676,1.423c-0.851,0.557-1.64,1.207-2.351,1.918c-0.712,0.712-1.361,1.5-1.918,2.353
	c-0.557,0.835-1.036,1.731-1.423,2.674c-0.387,0.93-0.681,1.903-0.882,2.893c-0.201,0.99-0.309,2.011-0.309,3.016
	c0,1.004,0.108,2.026,0.309,3.016c0.201,0.99,0.495,1.964,0.882,2.891c0.387,0.944,0.866,1.841,1.423,2.676
	c0.557,0.851,1.207,1.64,1.918,2.351c0.712,0.712,1.5,1.363,2.351,1.918c0.835,0.557,1.732,1.036,2.676,1.423
	c0.928,0.387,1.903,0.696,2.893,0.882c0.99,0.201,2.011,0.309,3.016,0.309c1.005,0,2.026-0.108,3.032-0.309
	c0.975-0.186,1.949-0.495,2.893-0.882c0.928-0.387,1.825-0.866,2.661-1.423c0.851-0.555,1.64-1.207,2.351-1.918
	c0.712-0.712,1.361-1.5,1.934-2.351c0.557-0.835,1.036-1.732,1.423-2.676c0.387-0.928,0.681-1.901,0.882-2.891
	c0.201-0.992,0.294-2.012,0.294-3.016C157.127,200.082,157.034,199.06,156.833,198.071z"/>
</svg>